<svg id="PTZ_Logo_Black" data-name="PTZ Logo Black" xmlns="http://www.w3.org/2000/svg" viewBox="0 0 1707.67 588.74"><defs><style>.cls-1{opacity:0.5;}.cls-2{fill:#333;}.cls-3{fill:#b92328;}.cls-4,.cls-5{fill:#fff;}.cls-5{opacity:0.96;}.cls-6{font-size:136.59px;fill:#c1272d;font-family:Roboto-LightItalic, Roboto;font-weight:300;font-style:italic;}.cls-7{letter-spacing:-0.02em;}.cls-8{letter-spacing:0em;}</style></defs><path class="cls-1" d="M99,884" transform="translate(-102 -194)"/><path d="M221,329a119,119,0,1,0,119,119A118.9,118.9,0,0,0,221,329Zm0,178.45A59.49,59.49,0,1,1,280.45,448,59.49,59.49,0,0,1,221,507.45Z" transform="translate(-102 -194)"/><path d="M591.6,436.73a119,119,0,1,0,0,22.46q.52-5.55.53-11.23T591.6,436.73ZM473.17,507.45a59.49,59.49,0,1,1,58.95-51.57A59.49,59.49,0,0,1,473.17,507.45Z" transform="translate(-102 -194)"/><path class="cls-2" d="M1136.57,329.19c-7.26,0-13.15-2-13.15-4.43,0-70.84-15.48-114.74-92.56-114.74-78.25,0-92.57,38.64-92.57,114.74,0,2.44-5.88,4.43-13.15,4.43s-13.15-2-13.15-4.43c0-82,18.39-123.6,118.87-123.6,109.77,0,118.86,58.46,118.86,123.6C1149.72,327.2,1143.84,329.19,1136.57,329.19Z" transform="translate(-102 -194)"/><path class="cls-3" d="M1338.46,321.08c3.24-16.78-8.55-32.55-24.34-32.55H747.6c-15.79,0-27.58,15.77-24.35,32.55l52.36,271.45C778,605,788.18,614,800,614h461.81c11.77,0,21.93-9,24.35-21.47ZM945.06,304c0,5.58-8.92,10.1-19.92,10.1s-19.92-4.52-19.92-10.1,8.92-10.11,19.92-10.11S945.06,298.43,945.06,304Zm211.44,0c0,5.58-8.92,10.1-19.92,10.1s-19.93-4.52-19.93-10.1,8.92-10.11,19.93-10.11S1156.5,298.43,1156.5,304Z" transform="translate(-102 -194)"/><path class="cls-2" d="M1138.61,314.65c-7.26,0-13.15-1.87-13.15-4.18,0-66.75-15.49-108.12-92.57-108.12-78.25,0-92.56,36.41-92.56,108.12,0,2.31-5.89,4.18-13.15,4.18S914,312.78,914,310.47C914,233.22,932.41,194,1032.89,194c109.78,0,118.87,55.09,118.87,116.47C1151.76,312.78,1145.87,314.65,1138.61,314.65Z" transform="translate(-102 -194)"/><path d="M161.48,450.82V587.67A59.48,59.48,0,0,1,102,647.15V448a118.3,118.3,0,0,1,13.51-55.08A59.51,59.51,0,0,1,161.48,450.82Z" transform="translate(-102 -194)"/><path d="M591.6,436.73V576a62.76,62.76,0,0,1-42.06-15.68,54.35,54.35,0,0,1-10.72-13.15,49,49,0,0,1-6.7-24.69V399.34c0-16,7.81-30.38,20.2-40.18A118.57,118.57,0,0,1,591.6,436.73Z" transform="translate(-102 -194)"/><path d="M1436.71,329a119,119,0,1,0,119,119A119,119,0,0,0,1436.71,329Zm0,178.45A59.49,59.49,0,1,1,1496.19,448,59.49,59.49,0,0,1,1436.71,507.45Z" transform="translate(-102 -194)"/><path d="M1750.05,452.07c.09-1.36.14-2.73.14-4.11s0-2.76-.14-4.12a60.94,60.94,0,0,0-.79-6.39v0a59.49,59.49,0,0,0-117.73,16.5v68.55a48.92,48.92,0,0,1-6.64,24.58,118.81,118.81,0,0,1-52.84-90.71q-.3-4.16-.3-8.39t.3-8.39a119,119,0,0,1,227.74-39.13v0l0,.08q2,4.6,3.63,9.4l0,.07,0,.08a114.82,114.82,0,0,1,3.17,11.29l0,.05h0q1.13,4.95,1.83,10.06.75,5.26,1,10.67c.09,1.92.14,3.84.14,5.78s-.05,3.86-.14,5.78q-.26,5.4-1,10.67a118.91,118.91,0,0,1-55,84.56Z" transform="translate(-102 -194)"/><path class="cls-4" d="M989.53,436.73a119,119,0,1,0,0,22.46q.53-5.55.53-11.23T989.53,436.73ZM871.1,507.45a59.49,59.49,0,1,1,58.95-51.57A59.5,59.5,0,0,1,871.1,507.45Z" transform="translate(-102 -194)"/><path class="cls-4" d="M989.53,436.73V576a62.76,62.76,0,0,1-42.06-15.68,54.35,54.35,0,0,1-10.72-13.15,49,49,0,0,1-6.7-24.69V399.34c0-16,7.81-30.38,20.2-40.18A118.57,118.57,0,0,1,989.53,436.73Z" transform="translate(-102 -194)"/><path d="M1631.53,399.34V522.48a48.92,48.92,0,0,1-6.64,24.58,54.24,54.24,0,0,1-10.78,13.26A62.76,62.76,0,0,1,1572.05,576V439.57a118.59,118.59,0,0,1,39.4-80.32C1623.77,369.06,1631.53,383.38,1631.53,399.34Z" transform="translate(-102 -194)"/><path d="M1803.49,410l0,.08,3.17,11.29,0,.05h0l2.83,20.73V576c-16.43,0-31.29-4.58-42.06-12a43.19,43.19,0,0,1-13.65-14.58l-.25-.47a29.68,29.68,0,0,1-3.52-13.89V440.92a28.48,28.48,0,0,1,.21-3.47v0c2.3-18.74,23-33.89,49.57-36.88Z" transform="translate(-102 -194)"/><path class="cls-4" d="M1242.58,391.5a32,32,0,0,0-23.69-48.16h-7.43L1041,342.89h-.3a56.29,56.29,0,0,0,56.15,56.43l68.41.17,29.21.07,31.87.08h.15a55.72,55.72,0,0,0,10.24-.94,2.14,2.14,0,0,0,.35-.06Z" transform="translate(-102 -194)"/><path class="cls-4" d="M1106.35,566.6l1-1.22a32,32,0,0,1-34.3-46.89,56.06,56.06,0,0,1,29.08-8.17l20.39-.05,27.51-.07,81.59-.21h.15A56.29,56.29,0,0,1,1288,566.13Z" transform="translate(-102 -194)"/><path class="cls-4" d="M1247.09,375.11a31.79,31.79,0,0,1-4.51,16.39l-4.69,6.07h0l-.82,1.06L1150,511.2l-17,22-25.65,33.16a32,32,0,0,1-34.3-46.89l-1.14.72,93.38-120.72,17.88-23.11,4.28-5.54a125,125,0,0,1,29.16-27.51l.27-.17c.69,0,1.38.09,2.06.18A32,32,0,0,1,1247.09,375.11Z" transform="translate(-102 -194)"/><path class="cls-4" d="M1132,535a32,32,0,1,1,0-1.78C1132,533.81,1132,534.4,1132,535Z" transform="translate(-102 -194)"/><path class="cls-5" d="M1247.09,375.11a31.79,31.79,0,0,1-4.51,16.39,32.25,32.25,0,0,1-4.69,6.07c-.39.39-.78.77-1.18,1.13a32,32,0,0,1-53.59-22.32c0-.42,0-.85,0-1.27a32,32,0,0,1,28.37-31.79,31,31,0,0,1,3.63-.21c.58,0,1.16,0,1.74.05s1.38.09,2.06.18A32,32,0,0,1,1247.09,375.11Z" transform="translate(-102 -194)"/><path d="M698.15,331.72V575.55a61.06,61.06,0,0,1-7.57-.46h0a60.46,60.46,0,0,1-34.48-16.15,55.23,55.23,0,0,1-17.42-40.09V388.42c0-.35,0-.7,0-1C639.26,356.54,665.67,331.72,698.15,331.72Z" transform="translate(-102 -194)"/><path d="M698.09,543c0-.56,0-1.12.06-1.67v3.33C698.11,544.14,698.09,543.59,698.09,543Z" transform="translate(-102 -194)"/><path class="cls-1" d="M741,560.4a24.83,24.83,0,0,1-3.28,2.85Q739.4,561.89,741,560.4Z" transform="translate(-102 -194)"/><path d="M732.13,431.74H732l-127.62.49h0c-.1-24.69,13.12-44.76,29.53-44.83l68.35-.26C718.64,387.08,732,407,732.13,431.74Z" transform="translate(-102 -194)"/><path d="M735.06,545.62h0l-.1-.06-81.48-44.73h0c-11.89,21.64-13,43.84-2.56,49.6l43.64,24C705,580.14,723.17,567.26,735.06,545.62Z" transform="translate(-102 -194)"/><path class="cls-4" d="M1010.41,421.66v8.76a7.45,7.45,0,0,0,3,6l37.66,28.17a2.87,2.87,0,0,1,0,4.59l-37.66,28.17a7.46,7.46,0,0,0-3,6v8.76a3,3,0,0,0,4.71,2.36l59.8-44.74a3.5,3.5,0,0,0,0-5.63l-59.8-44.73A2.94,2.94,0,0,0,1010.41,421.66Z" transform="translate(-102 -194)"/><path class="cls-4" d="M1015.11,453.91,1028.66,464a3.52,3.52,0,0,1,0,5.63l-13.54,10.13a3,3,0,0,1-4.71-2.36V456.27A2.94,2.94,0,0,1,1015.11,453.91Z" transform="translate(-102 -194)"/><text class="cls-6" transform="translate(251.67 551.73) scale(1.18 1)">Swift, <tspan class="cls-7" x="356.75" y="0">F</tspan><tspan class="cls-8" x="429.65" y="0">ast &amp; Easy</tspan></text></svg>